                    <svg width="19" height="13" viewBox="0 0 19 13" fill="none" xmlns="http://www.w3.org/2000/svg">
                      <path d="M13.8778 12.9318C13.8778 12.9318 13.3385 12.2954 12.8891 11.733C14.8516 11.1854 15.6006 9.97186 15.6006 9.97186C14.9864 10.3715 14.4021 10.6526 13.8778 10.845C13.1288 11.1558 12.4097 11.363 11.7056 11.4814C10.2674 11.7478 8.94913 11.6738 7.82557 11.4666C6.97166 11.3038 6.2376 11.067 5.62339 10.8302C5.27883 10.697 4.90431 10.5342 4.52979 10.3271C4.48485 10.2975 4.4399 10.2827 4.39496 10.2531C4.365 10.2383 4.35002 10.2235 4.33504 10.2087C4.06538 10.0607 3.91558 9.95706 3.91558 9.95706C3.91558 9.95706 4.63465 11.141 6.53722 11.7034C6.08779 12.2658 5.5335 12.9318 5.5335 12.9318C2.22274 12.8282 0.964355 10.6822 0.964355 10.6822C0.964355 5.91677 3.12159 2.05408 3.12159 2.05408C5.27883 0.455724 7.3312 0.500123 7.3312 0.500123L7.48101 0.677718C4.78446 1.4473 3.54105 2.61646 3.54105 2.61646C3.54105 2.61646 3.87063 2.43887 4.42492 2.18728C6.02787 1.4917 7.30124 1.2993 7.82557 1.2549C7.91545 1.2401 7.99036 1.2253 8.08024 1.2253C8.99407 1.10691 10.0277 1.07731 11.1064 1.1957C12.5295 1.3585 14.0576 1.77289 15.6156 2.61646C15.6156 2.61646 14.4321 1.5065 11.8854 0.736916L12.0951 0.500123C12.0951 0.500123 14.1475 0.455724 16.3047 2.05408C16.3047 2.05408 18.4619 5.91677 18.4619 10.6822C18.4619 10.6822 17.1886 12.8282 13.8778 12.9318Z" fill="white"/>
                      <path fill-rule="evenodd" clip-rule="evenodd" d="M11.2429 7.98026C11.2429 7.05076 11.9117 6.28888 12.7589 6.28888C13.6061 6.28888 14.2749 7.05076 14.2749 7.98026C14.2749 8.90976 13.6061 9.67164 12.7589 9.67164C11.9266 9.67164 11.2429 8.90976 11.2429 7.98026ZM5.81763 7.98029C5.81763 7.05079 6.48645 6.2889 7.33363 6.2889C8.18081 6.2889 8.86449 7.05079 8.84963 7.98029C8.84963 8.90978 8.18081 9.67167 7.33363 9.67167C6.50131 9.67167 5.81763 8.90978 5.81763 7.98029Z" fill="#7289DA"/>
                    </svg>