                    <svg width="21" height="12" viewBox="0 0 21 12" fill="none" xmlns="http://www.w3.org/2000/svg">
                      <path fill-rule="evenodd" clip-rule="evenodd" d="M11.4677 11.5711C11.4677 11.5711 11.8239 11.5323 12.0063 11.34C12.1733 11.1637 12.1675 10.8312 12.1675 10.8312C12.1675 10.8312 12.1453 9.27843 12.8797 9.04916C13.6036 8.82368 14.5331 10.5508 15.5195 11.2149C16.2646 11.717 16.8301 11.6071 16.8301 11.6071L19.466 11.5711C19.466 11.5711 20.8442 11.4878 20.1908 10.4238C20.1368 10.3367 19.8096 9.63655 18.2315 8.1984C16.5782 6.69299 16.8002 6.93647 18.7904 4.33208C20.0026 2.74614 20.4871 1.7779 20.3356 1.36389C20.1918 0.967874 19.3 1.07304 19.3 1.07304L16.3331 1.09104C16.3331 1.09104 16.113 1.06167 15.9499 1.15735C15.7907 1.25115 15.6874 1.46999 15.6874 1.46999C15.6874 1.46999 15.2183 2.69687 14.5919 3.7409C13.2706 5.94265 12.7427 6.05918 12.5265 5.92275C12.0237 5.60348 12.1491 4.64188 12.1491 3.9588C12.1491 1.82432 12.4792 0.934716 11.5073 0.704498C11.1849 0.627759 10.9475 0.577547 10.1223 0.569021C9.06351 0.558599 8.16784 0.57281 7.66017 0.816291C7.32237 0.978296 7.06177 1.3402 7.22102 1.36104C7.41695 1.38662 7.86092 1.47852 8.09642 1.79306C8.40045 2.19949 8.38983 3.11088 8.38983 3.11088C8.38983 3.11088 8.56452 5.62338 7.98157 5.93507C7.58199 6.14918 7.03378 5.71243 5.85533 3.71438C5.2521 2.69119 4.79655 1.56 4.79655 1.56C4.79655 1.56 4.70872 1.34873 4.5514 1.23504C4.36126 1.09767 4.09584 1.05503 4.09584 1.05503L1.27662 1.07304C1.27662 1.07304 0.852911 1.0844 0.697521 1.26536C0.559503 1.42547 0.686904 1.758 0.686904 1.758C0.686904 1.758 2.89422 6.82752 5.39398 9.38264C7.68623 11.7246 10.2883 11.5711 10.2883 11.5711H11.4677Z" fill="white"/>
                    </svg>