<svg width="21" height="15" viewBox="0 0 21 15" fill="none" xmlns="http://www.w3.org/2000/svg">
  <path fill-rule="evenodd" clip-rule="evenodd" d="M19.9543 2.93145C19.7273 2.05963 19.0586 1.37311 18.2095 1.14012C16.6708 0.716675 10.5 0.716675 10.5 0.716675C10.5 0.716675 4.32915 0.716675 2.79029 1.14012C1.94119 1.37311 1.2725 2.05963 1.04557 2.93145C0.633301 4.51152 0.633301 7.80834 0.633301 7.80834C0.633301 7.80834 0.633301 11.1051 1.04557 12.6852C1.2725 13.5571 1.94119 14.2436 2.79029 14.4767C4.32915 14.9 10.5 14.9 10.5 14.9C10.5 14.9 16.6708 14.9 18.2095 14.4767C19.0586 14.2436 19.7273 13.5571 19.9543 12.6852C20.3666 11.1051 20.3666 7.80834 20.3666 7.80834C20.3666 7.80834 20.3666 4.51152 19.9543 2.93145Z" fill="white"/>
  <path fill-rule="evenodd" clip-rule="evenodd" d="M8.6499 11.2V5.03333L13.5832 8.11678L8.6499 11.2Z" fill="#FF0000"/>
</svg>